<svg width="286" height="59" viewBox="0 0 286 59" fill="none" xmlns="http://www.w3.org/2000/svg">
<path d="M110.699 29.6724L108.496 42.9846C107.628 48.2926 106.107 50.7852 101.944 50.7852C97.8435 50.7852 96.3721 47.6868 97.2394 42.3441L99.5318 28.2822C100.388 23.0288 102.56 21.0824 105.801 21.0824C109.778 21.0824 111.632 24.0616 110.699 29.6724ZM103.853 28.2176L101.363 43.4265C101.108 44.9559 101.177 46.3511 102.386 46.3511C103.419 46.3511 103.818 45.2389 104.109 43.5407L106.595 28.3368C106.862 26.6734 106.649 25.586 105.499 25.586C104.662 25.5512 104.14 26.3606 103.853 28.2176Z" fill="white"/>
<path d="M114.676 20.2433H118.935L117.448 29.027C117.816 28.4532 118.28 27.9937 118.806 27.6832C119.331 27.3727 119.905 27.2193 120.484 27.2345C123.168 27.2345 123.927 30.0648 123.195 34.5088L121.781 43.1187C121.007 47.7514 119.845 50.7158 116.868 50.7158C115.125 50.7158 114.447 49.4893 114.215 48.4764C114.109 49.1206 113.972 49.7557 113.805 50.3781H109.696C110.025 48.5211 110.32 46.52 110.629 44.7077L114.676 20.2433ZM117.522 43.2379L118.962 34.4889C119.23 32.8553 119.233 31.7381 118.188 31.7381C117.216 31.7381 116.84 32.6567 116.507 34.6776L115.086 43.3074C114.742 45.373 115.048 46.1129 115.923 46.1129C116.519 46.098 117.1 45.7702 117.522 43.2379Z" fill="white"/>
<path d="M130.958 27.5871L127.256 49.9809C126.505 54.4845 126.01 58 121.994 58C121.257 58.0021 120.522 57.9123 119.799 57.7318L120.573 53.1935C120.728 53.2183 121.169 53.2779 121.452 53.2779C122.226 53.2779 122.521 52.8757 122.753 51.5201L126.718 27.5871H130.958ZM127.086 25.2633L127.919 20.2433H132.178L131.345 25.2633H127.086Z" fill="white"/>
<path d="M135.276 40.3977L134.703 43.9728C134.455 45.4276 134.606 46.4306 135.477 46.4306C136.434 46.4306 136.693 45.2985 136.883 44.1267L137.045 43.1336H141.181L141.092 43.794C140.492 47.6322 139.334 50.7058 135.094 50.7058C130.401 50.7058 129.983 46.659 130.707 42.3094L131.961 34.7223C132.631 30.6904 133.87 27.2742 138.095 27.2742C142.699 27.2742 143.284 30.8642 142.548 35.3231L141.704 40.3977H135.276ZM138.246 36.4552L138.66 33.9229C138.896 32.4332 138.877 31.3558 137.886 31.3558C137.014 31.3558 136.67 32.0708 136.376 33.9129L135.942 36.4751L138.246 36.4552Z" fill="white"/>
<path d="M153.463 42.4037L153.305 43.4316C152.673 47.4833 151.756 50.7157 147.376 50.7157C142.846 50.7157 142.459 46.8924 143.198 42.4981L144.519 34.4393C145.096 30.8294 146.238 27.2444 150.327 27.2444C154.973 27.2444 155.299 31.1274 154.768 34.5485L154.586 35.7054H150.528L150.811 33.7789C151.016 32.4233 151.047 31.5147 150.199 31.5147C149.351 31.5147 149.142 32.5077 148.894 33.8881L147.175 44.226C146.966 45.4177 147.032 46.3859 147.856 46.3859C148.681 46.3859 148.914 45.3383 149.173 43.8486L149.421 42.4037H153.463Z" fill="white"/>
<path d="M156.906 27.587H158.691L159.613 22.428H163.806L162.888 27.587H164.894L164.12 32.1551H162.13L159.98 44.5189C159.81 45.5567 159.938 46.1575 160.902 46.1575C161.217 46.1652 161.531 46.1403 161.843 46.083L161.138 50.2787C160.341 50.5305 159.523 50.6572 158.703 50.6561C156.112 50.6561 154.885 49.4595 155.547 45.4822L157.843 32.1551H156.151L156.906 27.587Z" fill="white"/>
<path d="M166.699 27.5871H170.958L167.171 50.3781H162.931L166.699 27.5871ZM167.918 20.2433H172.158L171.345 25.2633H167.086L167.918 20.2433Z" fill="white"/>
<path d="M170.42 50.3781L173.44 32.1801H171.694L172.468 27.6119H174.214L174.443 26.0478C175.004 22.7012 176.015 20 179.453 20C180.115 20.0088 180.774 20.1053 181.421 20.288L180.7 24.6128C180.471 24.5556 180.237 24.5323 180.003 24.5433C179.202 24.5433 178.884 25.1094 178.695 26.2713L178.474 27.607H180.41L179.635 32.1751H177.699L174.706 50.3781H170.42Z" fill="white"/>
<path d="M188.305 26.2811H185.103L185.904 21.5094H196.58L195.782 26.2811H192.545L188.572 50.3781H184.313L188.305 26.2811Z" fill="white"/>
<path d="M194.613 35.3181C195.241 31.4203 195.647 29.0816 195.837 27.5871H199.887C199.795 28.6702 199.657 29.746 199.473 30.8096C200.406 28.1233 201.986 27.2593 203.604 27.2444L202.509 33.6994C199.899 33.5803 198.88 34.9805 198.249 38.7641L196.367 50.3781H192.108L194.613 35.3181Z" fill="white"/>
<path d="M212.565 44.3798C212.286 46.068 211.72 49.5736 211.643 50.3383H207.515C207.55 49.9063 207.616 49.2608 207.705 48.5954C206.814 50.0552 205.889 50.7007 204.507 50.7007C201.831 50.7007 201.211 47.5577 201.877 43.5258C202.764 38.3121 204.716 36.8076 208.994 36.0777L209.719 35.9635L210.133 33.5056C210.369 32.0657 210.288 31.2563 209.463 31.2563C208.638 31.2563 208.425 32.0756 208.166 33.4759L208.011 34.3448H203.922L204.011 33.8036C204.615 30.2186 205.626 27.2046 209.769 27.2046C213.467 27.2046 215.043 29.3049 214.303 33.7837L212.565 44.3798ZM209.107 39.9507C208.963 39.9805 208.793 40.0252 208.638 40.0649C207.221 40.4671 206.543 41.0977 206.141 43.3867C205.904 44.8168 205.924 46.0978 206.876 46.0978C207.887 46.0978 208.278 44.926 208.63 42.8455L209.107 39.9507Z" fill="white"/>
<path d="M216.708 34.4095C217.366 30.3478 217.672 28.4511 217.784 27.5871H221.935C221.877 28.1482 221.823 28.749 221.734 29.2654C222.136 28.6246 222.646 28.1096 223.227 27.7594C223.807 27.4093 224.442 27.2332 225.083 27.2445C227.561 27.2445 228.402 29.5931 227.852 32.8802L224.963 50.3781H220.704L223.379 34.1612C223.646 32.617 223.379 31.7481 222.605 31.7481C221.691 31.7481 221.265 32.617 220.897 34.8713L218.314 50.3781H214.074L216.708 34.4095Z" fill="white"/>
<path d="M231.925 43.0989L231.732 44.221C231.507 45.5716 231.588 46.6392 232.467 46.6392C233.133 46.6392 233.447 46.0682 233.629 45.0304C233.962 43.2131 233.602 41.9916 232.189 40.348C229.776 37.5674 229.203 35.765 229.699 32.4482C230.194 29.1313 231.821 27.2444 234.733 27.2444C238.605 27.2444 239.72 30.3081 239.162 33.8236L239.027 34.6726H235.155L235.313 33.5902C235.55 32.0112 235.441 31.2614 234.725 31.2614C234.156 31.2614 233.865 31.8175 233.73 32.751C233.559 33.8782 233.641 34.613 234.918 36.1275C237.695 39.3748 238.349 41.3312 237.799 44.9261C237.269 48.4019 235.801 50.7157 232.258 50.7157C227.848 50.7157 227.139 47.2847 227.821 43.5507L227.898 43.0989H231.925Z" fill="white"/>
<path d="M243.174 48.829L241.691 57.7667H237.462L241.373 34.1315C241.877 31.0729 242.229 28.7441 242.396 27.5971H246.558C246.508 28.2642 246.429 28.9273 246.322 29.5832C246.671 28.8565 247.162 28.2588 247.746 27.8488C248.329 27.4387 248.986 27.2305 249.652 27.2446C252.181 27.2446 252.936 30.0003 252.208 34.3947L250.725 43.4267C249.95 48.0793 248.688 50.7208 245.791 50.7208C244.529 50.7159 243.573 50.0058 243.174 48.829ZM246.488 43.2728L247.886 34.7423C248.165 33.0838 248.181 31.7382 247.182 31.7382C246.183 31.7382 245.768 33.0739 245.424 35.1842L244.239 42.4336C243.851 44.7673 243.875 46.0832 244.94 46.0832C245.815 46.0832 246.229 44.8816 246.488 43.2728Z" fill="white"/>
<path d="M264.994 35.1741L263.639 43.4663C262.825 48.4317 261.199 50.7157 257.381 50.7157C253.633 50.7157 251.96 47.9699 252.785 43.0145L254.245 34.196C255.046 29.2951 256.955 27.2444 260.398 27.2444C264.003 27.2444 265.826 29.9704 264.994 35.1741ZM258.554 33.9924L256.92 43.9976C256.676 45.4177 256.897 46.371 257.842 46.371C258.787 46.371 259.081 45.378 259.313 43.943L260.967 33.9229C261.18 32.6368 261.145 31.5395 260.068 31.5395C259.069 31.5395 258.791 32.5971 258.554 33.9924Z" fill="white"/>
<path d="M267.162 35.3181C267.793 31.4203 268.2 29.0816 268.39 27.5871H272.44C272.348 28.6702 272.21 29.746 272.026 30.8096C272.959 28.1233 274.539 27.2593 276.157 27.2444L275.061 33.6994C272.451 33.5803 271.429 34.9805 270.802 38.7641L268.924 50.3781H264.665L267.162 35.3181Z" fill="white"/>
<path d="M277.443 27.587H279.224L280.153 22.428H284.347L283.429 27.587H285.435L284.66 32.1551H282.655L280.506 44.5189C280.335 45.5567 280.463 46.1575 281.427 46.1575C281.742 46.1652 282.057 46.1403 282.368 46.083L281.663 50.2787C280.866 50.5305 280.049 50.6572 279.228 50.6561C276.637 50.6561 275.41 49.4595 276.072 45.4822L278.368 32.1551H276.668L277.443 27.587Z" fill="white"/>
<path d="M73.5464 21.8995H55.8909V58.2327H73.5464V21.8995Z" fill="white"/>
<path d="M86.2843 9.46033V16.6586H23.4982C21.8956 16.6586 20.4922 18.4121 19.9645 19.1683C18.3224 21.5225 17.3679 24.9265 17.3679 28.495C17.3679 32.0634 18.3159 35.4697 19.9667 37.8347C20.4943 38.5888 21.8978 40.3445 23.5004 40.3445C25.1031 40.3445 26.5043 38.5909 27.032 37.8347C28.685 35.4697 29.633 32.0656 29.633 28.495C29.6481 26.2421 29.2519 24.0054 28.4638 21.8951H35.9911C36.546 24.0509 36.8249 26.2687 36.8209 28.495C36.8209 39.0162 30.8591 47.534 23.507 47.534C16.1549 47.534 10.1931 39.0162 10.1931 28.495C10.1931 17.9737 16.1527 9.46033 23.4982 9.46033H86.2843Z" fill="white"/>
<path d="M12.6716 13.0178C9.2933 17.246 7.43229 22.9647 7.43229 29.1153C7.43229 35.2658 9.2933 40.9845 12.6716 45.2171C15.6733 48.9741 19.5201 51.0432 23.507 51.0432C27.494 51.0432 31.3408 48.9741 34.3425 45.2171C37.7295 40.9889 39.5818 35.268 39.5818 29.1153C39.5878 26.6815 39.2847 24.2568 38.6797 21.8995H46.0493C46.5327 24.2742 46.7748 26.6918 46.7718 29.1153C46.7718 45.1974 36.3611 58.2306 23.518 58.2306C10.6748 58.2306 0.253174 45.1974 0.253174 29.1153C0.253174 13.0332 10.6639 0 23.4983 0H86.2844V7.18731H23.4983C19.5201 7.1895 15.6733 9.25867 12.6716 13.0178Z" fill="white"/>
</svg>
