<svg width="158" height="128" viewBox="0 0 158 128" fill="none" xmlns="http://www.w3.org/2000/svg">
<g clip-path="url(#clip0_2_14)">
<path d="M11.488 109.388L9.64041 118.134C8.91308 121.622 7.637 123.26 4.14646 123.26C0.707862 123.26 -0.526005 121.224 0.201327 117.714L2.12356 108.475C2.84115 105.023 4.66273 103.744 7.38049 103.744C10.7152 103.744 12.2705 105.702 11.488 109.388ZM5.74724 108.432L3.6594 118.425C3.4451 119.43 3.50355 120.346 4.51662 120.346C5.38357 120.346 5.71801 119.616 5.96154 118.5L8.04613 108.51C8.27017 107.418 8.09158 106.703 7.12722 106.703C6.42586 106.68 5.98752 107.212 5.74724 108.432Z" fill="#1C2848"/>
<path d="M14.8226 103.193H18.3944L17.1475 108.964C17.4555 108.587 17.8446 108.285 18.2856 108.081C18.7265 107.877 19.2078 107.776 19.6932 107.786C21.9434 107.786 22.5798 109.646 21.9661 112.566L20.7809 118.223C20.1315 121.266 19.1574 123.214 16.6605 123.214C15.1993 123.214 14.6311 122.408 14.4362 121.743C14.3474 122.166 14.2324 122.583 14.0921 122.992H10.647C10.923 121.772 11.1697 120.457 11.4295 119.267L14.8226 103.193ZM17.2092 118.301L18.4171 112.553C18.6411 111.479 18.6444 110.745 17.7677 110.745C16.9527 110.745 16.6377 111.349 16.3585 112.677L15.1668 118.347C14.8778 119.704 15.1344 120.19 15.8682 120.19C16.3682 120.18 16.8553 119.965 17.2092 118.301Z" fill="#1C2848"/>
<path d="M28.4764 108.018L25.3722 122.731C24.7423 125.69 24.3267 128 20.9595 128C20.3416 128.001 19.725 127.942 19.1185 127.824L19.7679 124.842C19.8978 124.858 20.2679 124.897 20.5049 124.897C21.1544 124.897 21.4011 124.633 21.5959 123.743L24.9209 108.018H28.4764ZM25.2294 106.491L25.9275 103.193H29.4992L28.8011 106.491H25.2294Z" fill="#1C2848"/>
<path d="M32.0968 116.435L31.6162 118.784C31.4084 119.74 31.5351 120.399 32.2656 120.399C33.0677 120.399 33.2852 119.655 33.4443 118.885L33.5807 118.232H37.0485L36.9738 118.666C36.4705 121.188 35.4997 123.208 31.9442 123.208C28.0088 123.208 27.6581 120.549 28.2653 117.691L29.3174 112.706C29.8791 110.057 30.9181 107.812 34.4606 107.812C38.3213 107.812 38.8116 110.171 38.1947 113.101L37.4869 116.435H32.0968ZM34.5873 113.844L34.9347 112.181C35.1328 111.202 35.1165 110.494 34.2853 110.494C33.5547 110.494 33.2657 110.964 33.019 112.174L32.6553 113.858L34.5873 113.844Z" fill="#1C2848"/>
<path d="M47.3481 117.753L47.2149 118.428C46.6857 121.09 45.9161 123.214 42.2437 123.214C38.4447 123.214 38.12 120.702 38.7402 117.815L39.8474 112.52C40.3312 110.148 41.2891 107.793 44.718 107.793C48.6144 107.793 48.8871 110.344 48.4423 112.592L48.2897 113.352H44.8868L45.1238 112.086C45.2959 111.195 45.3219 110.598 44.6108 110.598C43.8997 110.598 43.7244 111.251 43.5166 112.158L42.0749 118.95C41.8995 119.733 41.9547 120.369 42.6464 120.369C43.338 120.369 43.5328 119.681 43.7504 118.702L43.9582 117.753H47.3481Z" fill="#1C2848"/>
<path d="M50.2346 108.018H51.7315L52.5043 104.628H56.0208L55.2513 108.018H56.9332L56.2838 111.019H54.6149L52.8128 119.143C52.6699 119.824 52.777 120.219 53.5856 120.219C53.8494 120.224 54.1133 120.208 54.3746 120.17L53.7836 122.927C53.1153 123.092 52.4295 123.176 51.7412 123.175C49.569 123.175 48.5397 122.389 49.0949 119.776L51.0204 111.019H49.6015L50.2346 108.018Z" fill="#1C2848"/>
<path d="M58.4463 108.018H62.0181L58.8425 122.992H55.287L58.4463 108.018ZM59.4691 103.193H63.0246L62.3428 106.491H58.771L59.4691 103.193Z" fill="#1C2848"/>
<path d="M61.5663 122.992L64.099 111.036H62.6346L63.284 108.034H64.7484L64.9399 107.006C65.4108 104.808 66.2582 103.033 69.1416 103.033C69.6964 103.039 70.2492 103.102 70.7911 103.222L70.1871 106.064C69.9947 106.026 69.7986 106.011 69.6027 106.018C68.9305 106.018 68.6643 106.39 68.5052 107.153L68.3201 108.031H69.9436L69.2942 111.032H67.6707L65.1607 122.992H61.5663Z" fill="#1C2848"/>
<path d="M76.5643 107.16H73.879L74.5511 104.025H83.5032L82.8343 107.16H80.1198L76.7883 122.992H73.2166L76.5643 107.16Z" fill="#1C2848"/>
<path d="M81.8537 113.097C82.3797 110.536 82.7206 109 82.8798 108.018H86.2761C86.1991 108.729 86.0832 109.436 85.9287 110.135C86.7112 108.37 88.036 107.803 89.3933 107.793L88.4744 112.034C86.2859 111.956 85.4319 112.876 84.9026 115.361L83.3246 122.992H79.7529L81.8537 113.097Z" fill="#1C2848"/>
<path d="M96.9068 119.051C96.6731 120.16 96.199 122.464 96.1341 122.966H92.6727C92.7019 122.682 92.7571 122.258 92.8318 121.821C92.085 122.78 91.309 123.204 90.1498 123.204C87.9061 123.204 87.3866 121.139 87.9451 118.49C88.6886 115.065 90.3251 114.076 93.9131 113.597L94.5203 113.521L94.8677 111.907C95.0658 110.961 94.9976 110.429 94.306 110.429C93.6144 110.429 93.4358 110.967 93.2182 111.887L93.0883 112.458H89.6595L89.7342 112.102C90.2407 109.747 91.0882 107.767 94.5625 107.767C97.6634 107.767 98.9849 109.147 98.3648 112.089L96.9068 119.051ZM94.0072 116.141C93.8871 116.161 93.7442 116.19 93.6144 116.216C92.426 116.48 91.8577 116.895 91.52 118.399C91.322 119.338 91.3382 120.18 92.137 120.18C92.9844 120.18 93.3124 119.41 93.6079 118.043L94.0072 116.141Z" fill="#1C2848"/>
<path d="M100.381 112.5C100.933 109.832 101.19 108.585 101.284 108.018H104.765C104.716 108.386 104.671 108.781 104.596 109.121C104.933 108.7 105.361 108.361 105.848 108.131C106.334 107.901 106.867 107.785 107.404 107.793C109.483 107.793 110.187 109.336 109.726 111.496L107.304 122.992H103.732L105.976 112.337C106.2 111.323 105.976 110.752 105.326 110.752C104.56 110.752 104.203 111.323 103.894 112.804L101.729 122.992H98.1732L100.381 112.5Z" fill="#1C2848"/>
<path d="M113.142 118.21L112.98 118.947C112.791 119.834 112.859 120.536 113.597 120.536C114.155 120.536 114.418 120.16 114.571 119.479C114.85 118.285 114.548 117.482 113.363 116.402C111.34 114.575 110.859 113.391 111.275 111.212C111.691 109.032 113.054 107.793 115.496 107.793C118.743 107.793 119.678 109.806 119.211 112.115L119.097 112.673H115.85L115.983 111.962C116.181 110.925 116.09 110.432 115.49 110.432C115.012 110.432 114.769 110.797 114.655 111.411C114.512 112.151 114.58 112.634 115.652 113.629C117.98 115.763 118.529 117.048 118.068 119.41C117.623 121.694 116.392 123.214 113.421 123.214C109.723 123.214 109.129 120.96 109.7 118.506L109.765 118.21H113.142Z" fill="#1C2848"/>
<path d="M122.575 121.974L121.331 127.847H117.785L121.065 112.318C121.487 110.308 121.782 108.778 121.922 108.024H125.412C125.37 108.463 125.304 108.898 125.214 109.329C125.507 108.852 125.919 108.459 126.408 108.19C126.898 107.92 127.449 107.784 128.007 107.793C130.127 107.793 130.76 109.603 130.15 112.491L128.906 118.425C128.257 121.482 127.198 123.217 124.769 123.217C123.711 123.214 122.909 122.748 122.575 121.974ZM125.354 118.324L126.526 112.719C126.76 111.629 126.773 110.745 125.935 110.745C125.097 110.745 124.75 111.623 124.461 113.009L123.467 117.772C123.143 119.306 123.162 120.17 124.055 120.17C124.789 120.17 125.136 119.381 125.354 118.324Z" fill="#1C2848"/>
<path d="M140.871 113.003L139.735 118.451C139.053 121.713 137.689 123.214 134.488 123.214C131.345 123.214 129.942 121.41 130.634 118.154L131.858 112.36C132.53 109.14 134.131 107.793 137.017 107.793C140.04 107.793 141.57 109.584 140.871 113.003ZM135.472 112.226L134.101 118.8C133.897 119.733 134.082 120.359 134.874 120.359C135.666 120.359 135.913 119.707 136.108 118.764L137.495 112.181C137.673 111.336 137.644 110.615 136.741 110.615C135.904 110.615 135.67 111.31 135.472 112.226Z" fill="#1C2848"/>
<path d="M142.69 113.097C143.219 110.536 143.56 109 143.719 108.018H147.116C147.039 108.729 146.923 109.436 146.768 110.135C147.551 108.37 148.875 107.803 150.233 107.793L149.314 112.034C147.125 111.956 146.268 112.876 145.742 115.361L144.167 122.992H140.596L142.69 113.097Z" fill="#1C2848"/>
<path d="M151.311 108.018H152.804L153.584 104.628H157.1L156.331 108.018H158.013L157.363 111.019H155.681L153.879 119.143C153.736 119.824 153.843 120.219 154.652 120.219C154.916 120.224 155.18 120.208 155.441 120.17L154.85 122.927C154.182 123.092 153.496 123.176 152.808 123.175C150.635 123.175 149.606 122.389 150.161 119.776L152.087 111.019H150.661L151.311 108.018Z" fill="#1C2848"/>
<path d="M123.903 32.5946H97.7186V86.672H123.903V32.5946Z" fill="#1C2848"/>
<path d="M142.794 14.0805V24.7942H49.6794C47.3026 24.7942 45.2212 27.4041 44.4387 28.5296C42.0034 32.0335 40.5877 37.1 40.5877 42.4111C40.5877 47.7223 41.9937 52.7921 44.442 56.3122C45.2245 57.4344 47.3058 60.0476 49.6826 60.0476C52.0595 60.0476 54.1376 57.4377 54.9201 56.3122C57.3716 52.7921 58.7776 47.7256 58.7776 42.4111C58.8 39.058 58.2124 35.7289 57.0436 32.5881H68.2069C69.0299 35.7968 69.4435 39.0976 69.4375 42.4111C69.4375 58.0706 60.5959 70.7483 49.6924 70.7483C38.7889 70.7483 29.9473 58.0706 29.9473 42.4111C29.9473 26.7516 38.7857 14.0805 49.6794 14.0805H142.794Z" fill="#1C2848"/>
<path d="M33.6229 19.3754C28.6127 25.6685 25.8527 34.1801 25.8527 43.3344C25.8527 52.4886 28.6127 61.0002 33.6229 67.2999C38.0745 72.8917 43.7795 75.9714 49.6924 75.9714C55.6052 75.9714 61.3102 72.8917 65.7619 67.2999C70.785 61.0068 73.532 52.4919 73.532 43.3344C73.5409 39.7119 73.0913 36.1031 72.1942 32.5946H83.1237C83.8406 36.129 84.1996 39.7273 84.1952 43.3344C84.1952 67.2706 68.7556 86.6687 49.7086 86.6687C30.6616 86.6687 15.2057 67.2706 15.2057 43.3344C15.2057 19.3982 30.6453 0 49.6794 0H142.794V10.6974H49.6794C43.7795 10.7007 38.0745 13.7803 33.6229 19.3754Z" fill="#6F92C5"/>
</g>
<defs>
<clipPath id="clip0_2_14">
<rect width="158" height="128" fill="white"/>
</clipPath>
</defs>
</svg>
