<svg width="83" height="78" viewBox="0 0 83 78" fill="none" xmlns="http://www.w3.org/2000/svg">
<path fill-rule="evenodd" clip-rule="evenodd" d="M61.7197 77.7496C74.4159 70.6526 83 57.0787 83 41.5C83 18.5802 64.4198 0 41.5 0C18.5802 0 0 18.5802 0 41.5C0 56.7497 8.22522 70.0782 20.4812 77.2912C20.2892 75.5004 20.1892 73.6604 20.1892 71.7838C20.1892 63.3573 22.2051 55.6706 25.5204 49.8498C22.2051 46.1457 20.1892 41.2542 20.1892 35.8919C20.1892 24.3287 29.563 14.9549 41.1261 14.9549C52.6893 14.9549 62.063 24.3287 62.063 35.8919C62.063 41.2542 60.0471 46.1457 56.7318 49.8498C60.0472 55.6706 62.0631 63.3572 62.0631 71.7838C62.0631 73.8209 61.9452 75.8148 61.7197 77.7496Z" fill="#6F92C5"/>
</svg>
